<svg xmlns="http://www.w3.org/2000/svg" viewBox="0 0 1024 1024" role="img" aria-labelledby="kerminal-logo-title">
  <title id="kerminal-logo-title">Kerminal logo</title>
  <defs>
    <linearGradient id="shell-bg" x1="184" y1="156" x2="840" y2="868" gradientUnits="userSpaceOnUse">
      <stop offset="0" stop-color="#101820" />
      <stop offset="0.54" stop-color="#080d12" />
      <stop offset="1" stop-color="#06110d" />
    </linearGradient>
    <linearGradient id="shell-border" x1="204" y1="172" x2="820" y2="852" gradientUnits="userSpaceOnUse">
      <stop offset="0" stop-color="#4dd9ff" />
      <stop offset="0.42" stop-color="#6cff9d" />
      <stop offset="1" stop-color="#20c878" />
    </linearGradient>
    <linearGradient id="k-accent" x1="432" y1="314" x2="704" y2="728" gradientUnits="userSpaceOnUse">
      <stop offset="0" stop-color="#4dd9ff" />
      <stop offset="1" stop-color="#6cff9d" />
    </linearGradient>
    <radialGradient id="glow" cx="50%" cy="50%" r="52%">
      <stop offset="0" stop-color="#6cff9d" stop-opacity="0.34" />
      <stop offset="0.52" stop-color="#4dd9ff" stop-opacity="0.14" />
      <stop offset="1" stop-color="#4dd9ff" stop-opacity="0" />
    </radialGradient>
  </defs>

  <rect width="1024" height="1024" rx="220" fill="#05070a" />
  <circle cx="512" cy="520" r="438" fill="url(#glow)" />
  <rect x="176" y="152" width="672" height="672" rx="132" fill="url(#shell-bg)" />
  <rect
    x="190"
    y="166"
    width="644"
    height="644"
    rx="118"
    fill="none"
    stroke="url(#shell-border)"
    stroke-width="28"
  />
  <rect x="238" y="230" width="548" height="82" rx="30" fill="#ffffff" opacity="0.075" />
  <circle cx="285" cy="271" r="13" fill="#ff5f57" />
  <circle cx="331" cy="271" r="13" fill="#ffd166" />
  <circle cx="377" cy="271" r="13" fill="#6cff9d" />

  <g opacity="0.2" stroke="#d7fff0" stroke-width="4">
    <path d="M252 372H772" />
    <path d="M252 426H772" />
    <path d="M252 480H772" />
    <path d="M252 534H772" />
    <path d="M252 588H772" />
    <path d="M252 642H772" />
  </g>

  <path
    d="M298 453L381 512L298 571"
    fill="none"
    stroke="#6cff9d"
    stroke-linecap="square"
    stroke-linejoin="miter"
    stroke-width="52"
  />
  <g fill="none" stroke-linecap="square" stroke-linejoin="miter">
    <path d="M474 370V674" stroke="#6cff9d" stroke-width="68" />
    <path d="M536 516L708 370" stroke="url(#k-accent)" stroke-width="68" />
    <path d="M536 520L720 676" stroke="url(#k-accent)" stroke-width="68" />
  </g>
  <rect x="672" y="698" width="88" height="26" rx="8" fill="#4dd9ff" />
</svg>
